<?xml version="1.0" encoding="utf-8"?>
<!-- Generator: Adobe Illustrator 25.4.1, SVG Export Plug-In . SVG Version: 6.00 Build 0)  -->
<svg version="1.1" id="Color" xmlns="http://www.w3.org/2000/svg" xmlns:xlink="http://www.w3.org/1999/xlink" x="0px" y="0px"
	 viewBox="0 0 512 512" enable-background="new 0 0 512 512" xml:space="preserve">
<path fill="#ACDB52" d="M216.868,391.84c5.12-4.64,8-10.16,8-16c0-15.52-20.64-28.48-48-31.44v-59.28c25.12-3.36,52-5.12,80-5.12
	c136.96,0,248,42.96,248,96s-111.04,96-248,96s-248-42.96-248-96c0-38.64,58.96-71.92,144-87.2v55.6c-27.36,2.96-48,15.92-48,31.44
	c0,5.84,2.88,11.36,8,16c8.48,7.92,22.88,13.68,40,15.52c3.84,0.4,7.92,0.64,12,0.64s8.16-0.24,12-0.64
	C193.988,405.52,208.388,399.76,216.868,391.84z M336.868,360c0-13.28-10.72-24-24-24s-24,10.72-24,24s10.72,24,24,24
	S336.868,373.28,336.868,360z"/>
<path fill="#9E7059" d="M216.868,391.84c-8.48,7.92-22.88,13.68-40,15.52V376.4C193.988,378.24,208.468,384,216.868,391.84z"/>
<path fill="#995B3F" d="M224.868,375.84c0,5.84-2.88,11.36-8,16c-8.4-7.84-22.88-13.6-40-15.44v-32
	C204.228,347.36,224.868,360.32,224.868,375.84z"/>
<path fill="#995B3F" d="M192.868,379.44v24.88c-4.96,1.36-10.32,2.4-16,3.04V376.4C182.548,377.04,187.908,378.08,192.868,379.44z"
	/>
<path fill="#824A34" d="M192.868,347.52v31.92c-4.96-1.36-10.32-2.4-16-3.04v-32C182.548,345.04,187.908,346.08,192.868,347.52z"/>
<path fill="#83B720" d="M192.868,283.2v64.32c-4.96-1.44-10.32-2.48-16-3.12v-59.28C182.148,284.4,187.428,283.76,192.868,283.2z"/>
<path fill="#9E7059" d="M504.868,376v32c0,53.04-111.04,96-248,96s-248-42.96-248-96v-32c0,53.04,111.04,96,248,96
	S504.868,429.04,504.868,376z"/>
<path fill="#995B3F" d="M504.868,392v16c0,53.04-111.04,96-248,96s-248-42.96-248-96v-16c0,53.04,111.04,96,248,96
	S504.868,445.04,504.868,392z"/>
<circle fill="#DAD4D4" cx="312.868" cy="360" r="24"/>
<path fill="#A29292" d="M336.868,360c0,13.28-10.72,24-24,24c-10.88,0-20-7.12-22.96-17.04c2.16,0.64,4.56,1.04,6.96,1.04
	c13.28,0,24-10.72,24-24c0-2.4-0.4-4.8-1.04-6.96C329.748,340,336.868,349.12,336.868,360z"/>
<path fill="#83B720" d="M352.868,368c0,13.28-10.72,24-24,24c-7.2,0-13.6-3.12-17.92-8.16c0.64,0.16,1.28,0.16,1.92,0.16
	c13.28,0,24-10.72,24-24c0-6.08-2.32-11.6-6.08-15.84C343.188,345.04,352.868,355.36,352.868,368z"/>
<path fill="#83B720" d="M504.868,376c0,53.04-111.04,96-248,96c-116.96,0-215.04-31.36-241.2-73.52
	C57.908,428,139.348,448,232.868,448c136.96,0,248-42.96,248-96c0-7.76-2.4-15.28-6.8-22.48
	C493.668,343.36,504.868,359.12,504.868,376z"/>
<path fill="#9E7059" d="M152.868,376.4v30.96c-17.12-1.84-31.52-7.6-40-15.52C121.348,384,135.748,378.24,152.868,376.4z"/>
<path fill="#995B3F" d="M152.868,344.4v32c-17.12,1.84-31.52,7.6-40,15.44c-5.12-4.64-8-10.16-8-16
	C104.868,360.32,125.508,347.36,152.868,344.4z"/>
<path fill="#FBDE08" d="M176.868,376.4v30.96c-3.84,0.4-7.92,0.64-12,0.64s-8.16-0.24-12-0.64V376.4v-32v-55.6V248h24v37.12v59.28
	V376.4z"/>
<rect x="152.868" y="168" fill="#EE2D02" width="24" height="80"/>
<circle fill="#FBDE08" cx="164.868" cy="27" r="20"/>
<path fill="#FFA10B" d="M184.868,27c0,11.04-8.96,20-20,20c-6.56,0-12.32-3.12-16-8c11.04,0,20-8.96,20-20c0-4.48-1.52-8.72-4-12
	C175.908,7,184.868,15.96,184.868,27z"/>
<polygon fill="#FBDE08" points="164.868,48 176.868,48 176.868,56 176.868,128 176.868,168 152.868,168 152.868,48 "/>
<path fill="#EE2D02" d="M329.748,88.64c7.12,3.44,5.52,14.08-2.32,15.2c-11.44,1.52-22.08,4.16-26.48,6.88
	c-16.32,10.16-35.76,14.24-54.64,10.32c-33.44-7.04-69.44,6.96-69.44,6.96V56c0,0,36,18,69.44,25.04
	c18.88,3.92,35.28,6.8,53.36,0.08C306.388,78.64,318.068,83.04,329.748,88.64z"/>
<path fill="#B71008" d="M327.428,103.84c-11.44,1.52-22.08,4.16-26.48,6.88c-16.32,10.16-35.76,14.24-54.64,10.32
	c-33.44-7.04-69.44,6.96-69.44,6.96v-16c0,0,36-14,69.44-6.96c18.88,3.92,38.32-0.16,54.64-10.32c4.4-2.72,15.04-5.36,26.48-6.88
	c0.16,0,0.32-0.08,0.4-0.08c0.64,0.24,1.28,0.56,1.92,0.88C336.868,92.08,335.268,102.72,327.428,103.84z"/>
<path fill="#FFF177" d="M161.302,18.897c-5.147,0-5.156,8,0,8C166.45,26.897,166.459,18.897,161.302,18.897z"/>
<path fill="#EAEAEA" d="M305.711,352.166c-5.147,0-5.156,8,0,8C310.859,360.166,310.867,352.166,305.711,352.166z"/>
<path fill="#472B3C" d="M67.313,362.242c-2.531,2.336-3.898,0.992-4.789,0.102c-10.016-10.023-21.82-5.5-27.312,0
	c-3.078,3.078-3.062,8-0.047,11.141s8.055,3.219,11.258,0.273c2.531-2.336,3.898-0.992,4.789-0.102
	c4.32,4.32,8.969,5.938,13.305,5.938c5.719,0,10.883-2.812,14.008-5.938c3.078-3.078,3.062-8,0.047-11.141
	C75.555,359.383,70.524,359.289,67.313,362.242z"/>
<path fill="#472B3C" d="M256.868,272c-24.541,0-48.697,1.435-72,4.128v-142.38c10.623-3.301,36.174-9.827,59.773-4.889
	c20.312,4.266,41.828,0.234,60.555-11.359c2.164-1.344,10.141-3.977,23.281-5.766c7.047-0.969,12.523-6.328,13.625-13.344
	c1.117-7.031-2.453-13.844-8.867-16.938c-17.516-8.469-28.398-10.828-36.375-7.828c-15.688,5.852-30.164,3.523-48.937-0.422
	c-25.324-5.316-52.635-17.381-63.055-22.247V48h-0.466c5.208-5.088,8.466-12.162,8.466-20c0-15.438-12.562-28-28-28
	s-28,12.562-28,28s12.562,28,28,28c1.37,0,2.682-0.213,4-0.404V160h-8V72c0-4.422-3.578-8-8-8s-8,3.578-8,8v265.476
	c-28.59,4.981-48,20.192-48,38.399c0,7.803,3.658,14.994,9.941,21.092c0.082,0.097,0.104,0.22,0.191,0.314
	c0.133,0.144,0.317,0.192,0.458,0.323c11.96,11.13,32.961,18.396,57.41,18.396c23.605,0,44.021-6.764,56.168-17.247
	c0.635-0.376,1.294-0.71,1.824-1.277c0.319-0.339,0.458-0.762,0.707-1.137c5.89-5.963,9.301-12.928,9.301-20.464
	c0-18.207-19.41-33.417-48-38.399v-45.251c23.257-2.771,47.428-4.225,72-4.225c143.562,0,240,45.5,240,88s-96.438,88-240,88
	s-240-45.5-240-88c0-29.516,43.617-58.047,113.82-74.453c4.305-1.008,6.977-5.305,5.969-9.609c-1-4.297-5.312-6.953-9.609-5.969
	C48.04,304.43,0.868,338.086,0.868,376v32c0,58.32,112.445,104,256,104s256-45.68,256-104v-32
	C512.868,317.68,400.422,272,256.868,272z M184.868,68.546c13.572,6.027,37.057,15.542,59.773,20.313
	c20.711,4.352,38.141,7.102,57.82-0.25c1.156-0.438,6.352-1.188,23.852,7.266c-6.398,0.875-22.086,3.398-29.539,8.016
	c-15.219,9.422-32.562,12.711-48.852,9.312c-24.152-5.075-49.182-0.035-63.055,3.835V68.546z M144.868,398.033
	c-6.987-1.429-13.067-3.548-17.996-6.094c5.1-2.635,11.24-4.74,17.996-6.151V398.033z M144.868,369.465
	c-11.889,2.087-22.485,6.055-30.666,11.365c-0.846-1.652-1.334-3.316-1.334-4.956c0-8.24,11.804-17.995,32-22.136V369.465z
	 M168.868,399.896c-1.322,0.049-2.64,0.104-4,0.104s-2.678-0.055-4-0.104V256h8V399.896z M168.868,240h-8v-64h8V240z M164.868,40
	c-6.617,0-12-5.383-12-12s5.383-12,12-12s12,5.383,12,12S171.485,40,164.868,40z M184.868,398.033v-12.247
	c6.764,1.409,12.903,3.515,18.001,6.15C197.939,394.484,191.857,396.604,184.868,398.033z M216.868,375.875
	c0,1.64-0.489,3.305-1.335,4.957c-8.176-5.309-18.769-9.275-30.665-11.365v-15.727C205.064,357.88,216.868,367.635,216.868,375.875z
	 M256.868,496c-137.411,0-231.583-41.684-239.408-82.523C53.755,452.746,146.007,480,256.868,480s203.113-27.254,239.408-66.523
	C488.451,454.316,394.278,496,256.868,496z"/>
<path fill="#472B3C" d="M344.868,360c0-17.648-14.352-32-32-32s-32,14.352-32,32s14.352,32,32,32S344.868,377.648,344.868,360z
	 M296.868,360c0-8.82,7.18-16,16-16s16,7.18,16,16s-7.18,16-16,16S296.868,368.82,296.868,360z"/>
<path fill="#472B3C" d="M275.165,429.484c3.023,3.133,8.047,3.227,11.258,0.273c2.531-2.344,3.891-1,4.789-0.102
	c4.32,4.32,8.969,5.938,13.305,5.938c5.719,0,10.883-2.812,14.008-5.938c3.078-3.078,3.062-8,0.047-11.141
	s-8.055-3.219-11.258-0.273c-2.523,2.344-3.891,1-4.789,0.102c-10.016-10.016-21.812-5.5-27.312,0
	C272.133,421.422,272.149,426.344,275.165,429.484z"/>
<path fill="#472B3C" d="M222.524,434.344c-10.023-10.016-21.82-5.492-27.312,0c-3.078,3.078-3.062,8-0.047,11.141
	s8.047,3.227,11.258,0.273c2.523-2.336,3.891-0.992,4.789-0.102c4.32,4.32,8.969,5.938,13.305,5.938
	c5.719,0,10.883-2.812,14.008-5.938c3.078-3.078,3.062-8,0.047-11.141s-8.055-3.227-11.258-0.273
	C224.782,436.578,223.423,435.234,222.524,434.344z"/>
<path fill="#472B3C" d="M398.524,386.344c-10.016-10.016-21.812-5.492-27.312,0c-3.078,3.078-3.062,8-0.047,11.141
	s8.055,3.219,11.258,0.273c2.523-2.344,3.891-0.992,4.789-0.102c4.32,4.32,8.969,5.938,13.305,5.938
	c5.719,0,10.883-2.812,14.008-5.938c3.078-3.078,3.062-8,0.047-11.141c-3.023-3.133-8.047-3.227-11.258-0.273
	C400.782,388.586,399.415,387.234,398.524,386.344z"/>
<path fill="#472B3C" d="M422.422,357.758c2.531-2.344,3.891-1,4.789-0.102c4.32,4.32,8.969,5.938,13.305,5.938
	c5.719,0,10.883-2.812,14.008-5.938c3.078-3.078,3.062-8,0.047-11.141c-3.016-3.133-8.047-3.227-11.258-0.273
	c-2.531,2.344-3.891,1-4.789,0.102c-10.016-10.023-21.812-5.492-27.312,0c-3.078,3.078-3.062,8-0.047,11.141
	S419.219,360.703,422.422,357.758z"/>
<path fill="#472B3C" d="M243.212,325.656c4.32,4.32,8.969,5.938,13.305,5.938c5.719,0,10.883-2.812,14.008-5.938
	c3.078-3.078,3.062-8,0.047-11.141s-8.047-3.219-11.258-0.273c-2.531,2.344-3.898,0.992-4.789,0.102
	c-10.016-10.023-21.82-5.492-27.312,0c-3.078,3.078-3.062,8-0.047,11.141c3.023,3.133,8.055,3.227,11.258,0.273
	C240.946,323.414,242.321,324.766,243.212,325.656z"/>
</svg>
